<?xml version="1.0" encoding="UTF-8"?>
<svg xmlns="http://www.w3.org/2000/svg" width="140" height="50" viewBox="0 0 140 50" fill="none">
  <path d="M97.1349 0V24.9474L96.8186 25.2103L96.5022 25.4732L96.199 25.7492L95.909 26.0252L95.6322 26.3012L95.3554 26.5904L95.0918 26.8796L94.8282 27.1688V0H67.1073V22.7129H64.8137V0H37.0929V22.7524H34.7993V0H7.07851V25.9332L0 49.4479H6.2217L9.34573 39.0378H10.2421L15.4092 49.4479H22.9227L17.9137 39.0378H29.2762L26.1259 49.4479H32.9144L36.0252 39.0641H37.5279V39.0378H39.6633H39.8347H52.6603L49.6549 49.4216H56.5094L59.4225 39.0378H62.507L62.586 49.4216H68.3332L74.9371 39.0378H79.2607L77.0198 49.4216H83.7688L85.9701 39.0378H89.8718L89.8455 39.6293L89.8594 40.2339L89.8858 40.8122L89.9384 41.3906L89.978 41.6666L90.0175 41.9426L90.0702 42.2186L90.1228 42.4947L90.1887 42.7707L90.2546 43.0336L90.3336 43.2964L90.4126 43.5593L90.505 43.8222L90.5973 44.0719L90.7027 44.3217L90.8082 44.5583L90.9269 44.808L91.0456 45.0446L91.1775 45.2681L91.3093 45.5046L91.4544 45.7281L91.6125 45.9384L91.7707 46.1619L91.9421 46.359L92.1134 46.5693L92.2848 46.7665L92.4825 46.9636L92.6803 47.1477L92.9307 47.358L93.1812 47.5683L93.4448 47.7654L93.7216 47.9494L93.9984 48.1335L94.2752 48.3043L94.5652 48.4489L94.8684 48.6066L95.1584 48.738L95.4616 48.8694L95.7647 48.9877L96.0811 49.1061L96.3975 49.2113L96.7138 49.3033L97.0302 49.3953L97.3465 49.4742L97.9792 49.6187L98.6251 49.7239L99.2579 49.8159L99.8906 49.8948L100.51 49.9473L101.116 49.9737L101.71 50H102.276L103.041 49.9875L103.805 49.9751L104.583 49.9356L105.361 49.8962L106.139 49.8304L106.916 49.7646L107.694 49.6857L108.472 49.5937L109.263 49.4885L110.054 49.3702L110.844 49.2387L111.635 49.1073L112.426 48.9628L113.217 48.8051L114.008 48.6474L114.812 48.4633L117.158 39.0391H124.856V0.00121602H97.1356L97.1349 0ZM9.6489 38.0652L9.68841 37.9207L9.78077 38.0652H9.6489ZM33.7975 24.0799L33.4021 25.4075L29.7112 37.6314L29.5662 38.0652H17.4392L16.5033 36.0673L29.5662 22.7524H21.1696L10.9538 33.7276L14.2624 22.7524H8.06708V0.985813H33.7975V24.0799H33.7975ZM40.9551 34.4111L40.7574 34.4236L40.5728 34.4361L40.3751 34.4485H40.1642H39.8874H39.6501L39.426 34.461H39.2151L37.5675 34.4485L38.332 31.6357L38.6879 30.2424L39.5579 26.9696H39.8347H40.1247L40.4015 26.9571H40.6651H41.9437L42.7214 26.9696L43.4332 26.9959L43.7496 27.0084L44.0528 27.0348L44.3428 27.0742L44.6064 27.1136L44.8437 27.1531L45.0678 27.2189L45.2787 27.2847L45.4632 27.3635L45.6214 27.4424L45.7664 27.5477L45.8983 27.6529L46.0037 27.7843L46.0695 27.8895L46.1222 27.9948L46.1749 28.1131L46.2144 28.2445L46.2407 28.389L46.2547 28.5336V28.6913V28.8622L46.2407 29.0462L46.2283 29.2302L46.1888 29.4405L46.1493 29.6508L46.0306 30.0977L45.8856 30.5972L45.7405 31.0178L45.5824 31.4252L45.411 31.8064L45.2265 32.1613L45.1341 32.319L45.0418 32.4768L44.9362 32.6345L44.8175 32.779L44.6988 32.9235L44.5801 33.055L44.4483 33.1864L44.3164 33.3047L44.1714 33.4099L44.0263 33.5283L43.8682 33.6202L43.6968 33.7255L43.5254 33.8175L43.3409 33.8963L43.1564 33.9752L42.9586 34.041L42.7477 34.1199L42.5236 34.1724L42.2864 34.225L42.0491 34.2775L41.7855 34.317L41.5218 34.3564L41.245 34.3828L40.955 34.4091L40.9551 34.4111ZM59.6993 38.0652L62.4015 28.47L62.507 38.0652H59.6994H59.6993ZM63.8119 22.7129H57.3793L52.9503 38.0652H46.1223L46.4386 37.9338L46.755 37.8023L47.0582 37.6709L47.3613 37.5264L47.6513 37.3819L47.9282 37.211L48.205 37.0533L48.4686 36.8824L48.7322 36.6984L48.9827 36.5144L49.22 36.3304L49.4572 36.12L49.6813 35.9229L49.8922 35.6994L50.1031 35.4891L50.3008 35.2525L50.4986 35.0291L50.6831 34.7793L50.8545 34.5428L51.0258 34.2799L51.184 34.017L51.329 33.7541L51.4741 33.4781L51.6059 33.1889L51.7378 32.8997L51.8565 32.6106L51.9619 32.3083L52.0674 31.9928L52.1464 31.6774L52.2388 31.3619L52.3046 31.0201L52.3705 30.6916L52.4628 30.1658L52.5419 29.6663L52.5946 29.1931L52.6341 28.7462L52.648 28.2993L52.6341 27.8919L52.6217 27.4844L52.569 27.1032L52.5163 26.7483L52.4239 26.3934L52.3316 26.0648L52.1997 25.7494L52.0547 25.4471L51.8965 25.1448L51.712 24.8687L51.5011 24.6059L51.3297 24.4218L51.1583 24.2378L50.9738 24.0801L50.7761 23.9356L50.5652 23.7911L50.3543 23.6596L50.1302 23.5413L49.9061 23.4361L49.6688 23.3308L49.4316 23.252L49.1811 23.1731L48.9307 23.0942L48.667 23.0284L48.4034 22.9759L48.1398 22.9233L47.8629 22.8839L47.2961 22.805L46.7293 22.7655L46.1494 22.7261L45.5562 22.7136H44.3698H43.1967H42.8276H42.1685H41.3513H40.4417H39.5586H38.8072H38.28H38.0822V0.986515H63.8126V22.7136L63.8119 22.7129ZM79.4453 38.0652H75.5831L81.4357 28.8643L79.4453 38.0652V38.0652ZM93.8264 23.1467L93.8124 28.47L93.4829 28.9301L93.1797 29.4033L92.8765 29.8764L92.5997 30.3496L92.3361 30.8228L92.0724 31.3091L91.8484 31.7823L91.6243 32.2555L91.4134 32.7156L91.2288 33.1887L91.0443 33.6488L90.8861 34.0957L90.7411 34.5426L90.6092 34.9763L90.4905 35.3969L90.385 35.8175L90.3191 36.0936L90.2533 36.3827L90.1874 36.6588L90.1347 36.9479L90.082 37.224L90.0425 37.5L90.003 37.776L89.9767 38.0652H86.1936L89.4231 22.7524L78.5351 22.7399L68.7939 38.0659H68.0821V0.986484H93.8257V23.1473L93.8264 23.1467ZM108.669 44.3349L108.128 44.4269L107.575 44.5058L107.021 44.5846L106.481 44.6504L105.94 44.703L105.4 44.7424L104.872 44.7688H104.345H104.003L103.66 44.7563L103.33 44.7299L103.001 44.6905L102.684 44.638L102.381 44.5854L102.078 44.5196L101.788 44.4407L101.511 44.3488L101.234 44.2568L100.971 44.1385L100.72 44.0201L100.47 43.8756L100.233 43.7311L100.008 43.5734L99.7976 43.4156L99.5867 43.2316L99.4021 43.0345L99.2176 42.8373L99.0462 42.6138L98.8881 42.3904L98.743 42.1407L98.6112 41.8909L98.4793 41.628L98.3738 41.352L98.2814 41.0497L98.2024 40.7474L98.1234 40.4319L98.0707 40.1033L98.0312 39.7616L98.0048 39.4067L97.9909 39.0387H109.986L108.668 44.3357L108.669 44.3349ZM123.88 38.0652H117.395L118.463 33.7802H105.466L104.398 38.0652H98.1104V37.1845L98.1894 36.8165L98.2552 36.4485L98.3343 36.0541L98.4133 35.6598L98.532 35.2261L98.6507 34.7923L98.7826 34.3586L98.9276 33.9379L99.0858 33.5173L99.2571 33.0967L99.4417 32.6893L99.6262 32.2818L99.8371 31.8743L100.048 31.4932L100.272 31.0988L100.523 30.7308L100.773 30.3628L101.023 30.0079L101.3 29.6661L101.59 29.3375L101.893 29.0221L102.197 28.7329L102.526 28.4437L102.856 28.1677L103.198 27.918L103.568 27.6814L103.937 27.4711L104.319 27.2739L104.714 27.0899L105.123 26.9322L105.545 26.8007L105.98 26.6955L106.428 26.6035L106.889 26.5377L107.364 26.4983L107.852 26.4858L108.234 26.4983L108.616 26.5246L108.998 26.5772L109.367 26.6561L109.552 26.7086L109.723 26.7611L109.895 26.8137L110.053 26.8926L110.211 26.9584L110.369 27.0503L110.514 27.1423L110.659 27.2343L110.791 27.3526L110.923 27.471L111.042 27.5893L111.16 27.7338L111.266 27.8652L111.358 28.023L111.437 28.1938L111.516 28.3647L111.582 28.5487L111.635 28.7459L111.674 28.943L111.714 29.1665L111.728 29.3899V29.6265V29.8763L111.701 30.1391H119.452L119.571 29.6002L119.676 28.9825L119.729 28.6539L119.755 28.299L119.782 27.9441V27.5761L119.769 27.1949L119.73 26.8006L119.69 26.6165L119.664 26.4194L119.611 26.2222L119.559 26.0251L119.493 25.8147L119.427 25.6176L119.348 25.4204L119.256 25.2233L119.163 25.0261L119.045 24.8289L118.926 24.6318L118.794 24.4346L118.636 24.2243L118.464 24.0272L118.293 23.83L118.109 23.646L117.911 23.462L117.7 23.2911L117.489 23.1334L117.265 22.9756L117.028 22.8179L116.79 22.6865L116.54 22.5551L116.276 22.4236L116.013 22.3053L115.736 22.187L115.446 22.0818L115.156 21.9765L114.866 21.8845L114.55 21.8057L114.246 21.7268L113.917 21.6479L113.587 21.5821L113.258 21.5163L112.915 21.4638L112.559 21.4243L111.834 21.3454L111.096 21.2797L110.318 21.2533L109.527 21.2408L108.934 21.2533L108.315 21.2658L107.669 21.3052L106.996 21.3578L106.298 21.4366L105.586 21.5286L104.861 21.647L104.123 21.8047L103.754 21.8836L103.372 21.9755L103.002 22.0808L102.62 22.186L102.238 22.3043L101.856 22.4358L101.473 22.5672L101.104 22.7117L100.722 22.8694L100.34 23.0403L99.9707 23.2112L99.5885 23.3952L99.2194 23.5923L98.8503 23.8026L98.4812 24.013L98.1121 24.2496V0.984582H123.882V38.064L123.88 38.0652Z" fill="#8D8E91"></path>
</svg>
