<?xml version="1.0" encoding="UTF-8"?>
<svg xmlns="http://www.w3.org/2000/svg" width="200" height="50" viewBox="0 0 200 50" fill="none">
  <path d="M41.9343 35.2667C43.9312 31.8 45.0907 27.6667 45.0907 23.3333C45.0907 10.4667 34.9775 0 22.5453 0C10.1132 0 0 10.4667 0 23.3333C0 36.2 10.1132 46.6667 22.5453 46.6667C26.7323 46.6667 30.7261 45.4667 34.0757 43.4L42.7073 45.6C43.5447 45.8 44.2533 45.0667 44.06 44.2L41.9343 35.2667ZM31.6923 31.7333C31.6923 32.4 31.177 32.8667 30.5972 32.8667H15.1376C14.4934 32.8667 14.0425 32.3333 14.0425 31.7333V17.6667C14.0425 17.3333 14.1713 17 14.429 16.8L22.1588 9.86666C22.5453 9.46666 23.1895 9.46666 23.6404 9.86666L31.3702 16.8C31.6279 17 31.7567 17.3333 31.7567 17.6667V31.7333H31.6923Z" fill="#8D8E91"></path>
  <path d="M60.8705 9.51207H68.711V3.23023H71.0341V18.187H68.711V11.777H60.8705V18.1443H58.5474V3.1875H60.8705V9.51207V9.51207Z" fill="#8D8E91"></path>
  <path d="M84.4876 12.8844C84.4876 15.9613 82.206 18.2689 79.1361 18.2689C76.0663 18.2689 73.7847 15.9613 73.7847 12.8844C73.7847 9.80762 76.0663 7.5 79.1361 7.5C82.206 7.5 84.4876 9.80762 84.4876 12.8844ZM76.0248 12.8844C76.0248 14.8074 77.3523 16.1749 79.1361 16.1749C80.92 16.1749 82.2475 14.8502 82.2475 12.8844C82.2475 10.9187 80.92 9.59395 79.1361 9.59395C77.3523 9.59395 76.0248 10.9614 76.0248 12.8844Z" fill="#8D8E91"></path>
  <path d="M102.642 11.7355V18.1455H100.485V12.4619C100.485 10.7526 99.6134 9.76973 98.1614 9.76973C96.751 9.76973 95.5894 10.7099 95.5894 12.4619V18.1455H93.4322V12.4619C93.4322 10.7526 92.561 9.76973 91.1091 9.76973C89.6986 9.76973 88.5371 10.7099 88.5371 12.4619V18.1455H86.3799V7.93218H88.5371V9.17146C89.3253 7.97492 90.5698 7.67578 91.5654 7.67578C93.0589 7.67578 94.3034 8.35952 95.0086 9.51333C95.8798 8.06038 97.4147 7.67578 98.6177 7.67578C100.982 7.67578 102.642 9.34239 102.642 11.7355Z" fill="#8D8E91"></path>
  <path d="M114.566 12.8844C114.566 13.1836 114.566 13.44 114.524 13.6964H107.182C107.472 15.5339 108.716 16.3031 110.127 16.3031C111.123 16.3031 112.16 15.9185 112.989 15.2348L114.068 16.8159C112.865 17.8843 111.496 18.2689 110.002 18.2689C107.016 18.2689 104.941 16.1322 104.941 12.8844C104.941 9.67941 106.974 7.5 109.878 7.5C112.657 7.5 114.566 9.67941 114.566 12.8844ZM107.182 11.987H112.326C112.077 10.4059 111.164 9.46575 109.795 9.46575C108.26 9.46575 107.43 10.4914 107.182 11.987Z" fill="#8D8E91"></path>
  <path d="M132.224 6.05058L130.275 7.37532C129.403 6.05058 127.952 5.23864 126.209 5.23864C123.264 5.23864 121.065 7.46079 121.065 10.6658C121.065 13.8708 123.222 16.093 126.209 16.093C127.91 16.093 129.362 15.281 130.233 13.9563L132.141 15.4092C130.897 17.2895 128.74 18.4433 126.209 18.4433C121.77 18.4433 118.618 15.1528 118.618 10.7085C118.618 6.26425 121.77 2.97376 126.209 2.97376C128.781 2.93103 131.104 4.12757 132.224 6.05058Z" fill="#8D8E91"></path>
  <path d="M144.257 13.0602C144.257 16.137 141.975 18.4446 138.905 18.4446C135.836 18.4446 133.595 16.137 133.595 13.0602C133.595 9.9834 135.877 7.67578 138.947 7.67578C142.017 7.67578 144.257 9.9834 144.257 13.0602ZM135.836 13.0602C135.836 14.9832 137.163 16.3507 138.947 16.3507C140.731 16.3507 142.058 15.026 142.058 13.0602C142.058 11.0945 140.731 9.76973 138.947 9.76973C137.163 9.76973 135.836 11.1372 135.836 13.0602Z" fill="#8D8E91"></path>
  <path d="M155.66 11.7355V18.1455H153.503V12.4619C153.503 10.7526 152.631 9.76973 151.179 9.76973C149.769 9.76973 148.607 10.7099 148.607 12.4619V18.1455H146.45V7.93218H148.607V9.17146C149.396 7.97492 150.64 7.67578 151.636 7.67578C154 7.67578 155.66 9.34239 155.66 11.7355Z" fill="#8D8E91"></path>
  <path d="M167.693 11.7355V18.1455H165.535V12.4619C165.535 10.7526 164.664 9.76973 163.212 9.76973C161.802 9.76973 160.64 10.7099 160.64 12.4619V18.1455H158.483V7.93218H160.64V9.17146C161.429 7.97492 162.673 7.67578 163.669 7.67578C166.033 7.67578 167.693 9.34239 167.693 11.7355Z" fill="#8D8E91"></path>
  <path d="M179.392 13.0602C179.392 13.3594 179.35 13.6158 179.35 13.8722H172.007C172.298 15.7097 173.542 16.4789 174.953 16.4789C175.948 16.4789 176.986 16.0943 177.815 15.4106L178.894 16.9917C177.691 18.06 176.322 18.4446 174.828 18.4446C171.842 18.4446 169.767 16.308 169.767 13.0602C169.767 9.8552 171.8 7.67578 174.704 7.67578C177.483 7.67578 179.392 9.8552 179.392 13.0602ZM172.049 12.1628H177.193C176.944 10.5817 176.031 9.64153 174.662 9.64153C173.128 9.64153 172.256 10.6671 172.049 12.1628Z" fill="#8D8E91"></path>
  <path d="M189.804 9.29966L188.435 10.8381C187.73 10.1543 187.024 9.76973 186.07 9.76973C184.411 9.76973 183.125 11.0945 183.125 13.0602C183.125 15.026 184.369 16.3507 186.07 16.3507C187.024 16.3507 187.854 15.8806 188.518 15.2824L189.845 16.8208C188.933 17.8891 187.605 18.4446 186.153 18.4446C183 18.4446 180.926 16.137 180.926 13.0602C180.926 9.9834 183 7.67578 186.153 7.67578C187.564 7.67578 188.933 8.23132 189.804 9.29966Z" fill="#8D8E91"></path>
  <path d="M198.6 9.97983H194.783V14.4241C194.783 15.7916 195.488 16.3471 196.359 16.3471C197.023 16.3471 197.77 16.048 198.351 15.6634L199.222 17.4582C198.434 18.0137 197.438 18.4838 196.193 18.4838C193.953 18.4838 192.626 17.2445 192.626 14.5096V9.97983H190.635V7.97135H192.626V4.89453H194.783V7.97135H198.6V9.97983Z" fill="#8D8E91"></path>
  <path d="M59.0278 45.38V31.4406H67.8131V33.5574H61.5121V37.3417H67.2104V39.4584H61.5121V45.38H59.0278Z" fill="#8D8E91"></path>
  <path d="M82.3301 38.4103C82.3301 39.9122 82.0533 41.1986 81.4998 42.2695C80.9507 43.3358 80.2008 44.1526 79.2499 44.7198C78.3035 45.2869 77.2299 45.5705 76.0291 45.5705C74.8283 45.5705 73.7525 45.2869 72.8016 44.7198C71.8552 44.148 71.1053 43.329 70.5517 42.2627C70.0027 41.1918 69.7281 39.9077 69.7281 38.4103C69.7281 36.9083 70.0027 35.6242 70.5517 34.5579C71.1053 33.487 71.8552 32.668 72.8016 32.1008C73.7525 31.5336 74.8283 31.25 76.0291 31.25C77.2299 31.25 78.3035 31.5336 79.2499 32.1008C80.2008 32.668 80.9507 33.487 81.4998 34.5579C82.0533 35.6242 82.3301 36.9083 82.3301 38.4103ZM79.8325 38.4103C79.8325 37.353 79.6695 36.4614 79.3437 35.7354C79.0223 35.0048 78.5758 34.4535 78.0044 34.0814C77.4331 33.7048 76.7746 33.5165 76.0291 33.5165C75.2836 33.5165 74.6252 33.7048 74.0538 34.0814C73.4824 34.4535 73.0337 35.0048 72.7079 35.7354C72.3865 36.4614 72.2258 37.353 72.2258 38.4103C72.2258 39.4675 72.3865 40.3614 72.7079 41.092C73.0337 41.818 73.4824 42.3693 74.0538 42.7459C74.6252 43.118 75.2836 43.304 76.0291 43.304C76.7746 43.304 77.4331 43.118 78.0044 42.7459C78.5758 42.3693 79.0223 41.818 79.3437 41.092C79.6695 40.3614 79.8325 39.4675 79.8325 38.4103Z" fill="#8D8E91"></path>
  <path d="M84.6787 45.38V31.4406H89.8213C90.8748 31.4406 91.7587 31.6266 92.4729 31.9987C93.1917 32.3708 93.734 32.8926 94.1001 33.5642C94.4706 34.2312 94.6559 35.0094 94.6559 35.8987C94.6559 36.7926 94.4684 37.5686 94.0934 38.2265C93.7229 38.8799 93.176 39.3858 92.4529 39.7443C91.7297 40.0982 90.8413 40.2752 89.7878 40.2752H86.1251V38.1789H89.453C90.0691 38.1789 90.5735 38.0926 90.9663 37.9202C91.3592 37.7433 91.6493 37.4869 91.8368 37.1511C92.0288 36.8108 92.1248 36.3933 92.1248 35.8987C92.1248 35.4041 92.0288 34.9821 91.8368 34.6328C91.6449 34.2788 91.3525 34.0111 90.9596 33.8296C90.5668 33.6436 90.0601 33.5505 89.4396 33.5505H87.163V45.38H84.6787ZM91.7632 39.0637L95.1581 45.38H92.3859L89.0513 39.0637H91.7632Z" fill="#8D8E91"></path>
  <path fill-rule="evenodd" clip-rule="evenodd" d="M130.511 37.5741C131.615 37.1231 132.33 36.0063 132.31 34.782C132.31 32.2691 130.613 31.0234 128.282 31.0234H122.168V44.6832H128.813C130.858 44.6832 132.862 43.1798 132.862 40.8817C132.862 38.154 130.511 37.5956 130.511 37.5741ZM125.358 33.8585H127.73C128.363 33.8155 128.916 34.331 128.956 34.9968C128.956 35.0398 128.956 35.1042 128.956 35.1471C128.936 35.8559 128.404 36.3929 127.73 36.3929H125.337L125.358 33.8585ZM127.75 41.8267H125.378V39.142H127.689C128.854 39.142 129.406 39.6789 129.406 40.4736C129.406 41.4616 128.711 41.8267 127.75 41.8267Z" fill="#8D8E91"></path>
  <path fill-rule="evenodd" clip-rule="evenodd" d="M139.898 30.6797C136.135 30.6797 133.927 33.8369 133.927 37.8317C133.927 41.8266 136.135 44.9838 139.898 44.9838C143.66 44.9838 145.869 41.8481 145.869 37.8317C145.869 33.8154 143.681 30.6797 139.898 30.6797ZM139.898 41.7192C138.058 41.7192 137.137 39.9795 137.137 37.8317C137.137 35.684 138.058 33.9658 139.898 33.9658C141.738 33.9658 142.679 35.7055 142.679 37.8317C142.679 40.001 141.738 41.7192 139.898 41.7192Z" fill="#8D8E91"></path>
  <path fill-rule="evenodd" clip-rule="evenodd" d="M152.8 36.3947L152.35 36.2873C151.246 36.051 150.367 35.7504 150.367 34.9127C150.367 34.0107 151.205 33.6456 151.941 33.6456C152.964 33.667 153.925 34.1181 154.6 34.9127L156.624 32.8079C155.704 31.7126 154.211 30.6602 151.88 30.6602C149.14 30.6602 147.054 32.271 147.054 34.9557C147.054 37.4041 148.731 38.6069 150.776 39.0579L151.226 39.1653C152.923 39.5304 153.557 39.8096 153.557 40.6687C153.557 41.4849 152.861 42.0218 151.798 42.0218C150.53 42.0218 149.385 41.4419 148.506 40.2607L146.441 42.4084C147.586 43.8474 149.038 44.9643 151.839 44.9643C154.272 44.9643 156.869 43.5038 156.869 40.5184C156.91 37.4041 154.661 36.8028 152.8 36.3947Z" fill="#8D8E91"></path>
  <path fill-rule="evenodd" clip-rule="evenodd" d="M164.15 41.7212C162.718 41.7212 161.226 40.4755 161.226 37.7478C161.226 35.3208 162.616 33.9677 164.068 33.9677C165.213 33.9677 165.888 34.5261 166.42 35.4926L169.037 33.667C167.728 31.5837 166.174 30.7031 164.027 30.7031C160.101 30.7031 157.974 33.9033 157.974 37.7693C157.974 41.8286 160.326 45.0072 163.986 45.0072C166.563 45.0072 167.79 44.0622 169.119 42.0433L166.481 40.1748C165.949 41.0768 165.377 41.7212 164.15 41.7212Z" fill="#8D8E91"></path>
  <path fill-rule="evenodd" clip-rule="evenodd" d="M177.768 31.0234V36.0492H173.821V31.0234H170.406V44.6832H173.821V39.2923H177.768V44.6832H181.183V31.0234H177.768Z" fill="#8D8E91"></path>
  <path d="M109.054 29.168C104.467 29.168 100.743 33.0796 100.743 37.8967C100.743 42.7138 104.467 46.6254 109.054 46.6254C113.64 46.6254 117.364 42.7138 117.364 37.8967C117.364 33.0796 113.64 29.168 109.054 29.168ZM109.054 45.8104C104.898 45.8104 101.519 42.261 101.519 37.8967C101.519 33.5323 104.898 29.9829 109.054 29.9829C113.209 29.9829 116.588 33.5323 116.588 37.8967C116.588 42.261 113.209 45.8104 109.054 45.8104Z" fill="#8D8E91"></path>
  <path d="M112.486 32.4453H111.917V35.4334H106.21V32.4453H105.623C102.761 34.4373 101.968 38.4757 103.865 41.5C104.33 42.2425 104.934 42.8763 105.623 43.3471H106.21V40.3591H111.917V43.3471H112.486C115.348 41.3551 116.141 37.3167 114.261 34.3106C113.796 33.5681 113.192 32.9343 112.486 32.4453ZM105.417 42.17C103.175 40.0693 102.968 36.4475 104.968 34.0933C105.106 33.9303 105.261 33.7673 105.417 33.6224V42.17ZM111.917 39.5261H106.21V36.2483H111.917V39.5261ZM112.692 42.1519V40.341V35.4334V33.6224C114.934 35.7412 115.123 39.3631 113.106 41.7173C112.968 41.8622 112.83 42.007 112.692 42.1519Z" fill="#8D8E91"></path>
</svg>
