<?xml version="1.0" encoding="UTF-8"?>
<svg xmlns="http://www.w3.org/2000/svg" width="141" height="60" viewBox="0 0 141 60" fill="none">
  <path d="M95.3823 12V29.9621L95.1553 30.1514L94.9282 30.3407L94.7106 30.5394L94.5025 30.7382L94.3038 30.9369L94.1051 31.1451L93.9159 31.3533L93.7267 31.5615V12H73.8309V28.3533H72.1847V12H52.2889V28.3817H50.6427V12H30.7469V30.6719L25.6665 47.6025H30.132L32.3741 40.1072H33.0175L36.726 47.6025H42.1186L38.5236 40.1072H46.6787L44.4176 47.6025H49.2899L51.5226 40.1262H52.6011V40.1072H54.1337H54.2567H63.462L61.3049 47.5835H66.2245L68.3153 40.1072H70.5291L70.5858 47.5835H74.7107L79.4505 40.1072H82.5536L80.9453 47.5835H85.7892L87.3691 40.1072H90.1694L90.1505 40.5331L90.1606 40.9684L90.1795 41.3848L90.2173 41.8012L90.2456 41.9999L90.274 42.1987L90.3118 42.3974L90.3496 42.5962L90.3969 42.7949L90.4441 42.9842L90.5009 43.1734L90.5576 43.3627L90.6239 43.552L90.6901 43.7318L90.7658 43.9116L90.8415 44.082L90.9267 44.2618L91.0119 44.4321L91.1065 44.593L91.2012 44.7633L91.3053 44.9242L91.4188 45.0756L91.5323 45.2365L91.6553 45.3785L91.7783 45.5299L91.9013 45.6719L92.0432 45.8138L92.1851 45.9463L92.3649 46.0977L92.5446 46.2492L92.7338 46.3911L92.9325 46.5236L93.1312 46.6561L93.3299 46.7791L93.538 46.8832L93.7556 46.9967L93.9637 47.0914L94.1813 47.186L94.3989 47.2712L94.626 47.3564L94.853 47.4321L95.0801 47.4984L95.3072 47.5646L95.5342 47.6214L95.9883 47.7254L96.4519 47.8012L96.906 47.8674L97.3601 47.9242L97.8048 47.9621L98.24 47.981L98.6657 48H99.0725L99.6212 47.991L100.17 47.982L100.728 47.9536L101.286 47.9252L101.844 47.8779L102.403 47.8305L102.961 47.7737L103.519 47.7075L104.087 47.6317L104.654 47.5465L105.222 47.4519L105.79 47.3573L106.357 47.2532L106.925 47.1397L107.493 47.0261L108.07 46.8936L109.754 40.1081H115.279V12.0009H95.3828L95.3823 12ZM32.5917 39.4069L32.6201 39.3029L32.6864 39.4069H32.5917ZM49.9237 29.3375L49.6399 30.2934L46.9909 39.0946L46.8868 39.4069H38.183L37.5113 37.9684L46.8868 28.3817H40.8603L33.5283 36.2839L35.9029 28.3817H31.4564V12.7098H49.9237V29.3375H49.9237ZM55.0609 36.776L54.919 36.785L54.7865 36.794L54.6446 36.8029H54.4932H54.2946H54.1243L53.9634 36.8119H53.8121L52.6295 36.8029L53.1782 34.7777L53.4336 33.7746L54.058 31.4181H54.2567H54.4648L54.6635 31.4091H54.8527H55.7704L56.3286 31.4181L56.8395 31.4371L57.0665 31.446L57.2841 31.465L57.4923 31.4934L57.6815 31.5218L57.8518 31.5502L58.0126 31.5976L58.164 31.645L58.2964 31.7017L58.41 31.7585L58.514 31.8343L58.6087 31.9101L58.6843 32.0047L58.7316 32.0805L58.7694 32.1562L58.8072 32.2414L58.8356 32.3361L58.8545 32.4401L58.8645 32.5442V32.6577V32.7808L58.8545 32.9132L58.8456 33.0457L58.8172 33.1972L58.7889 33.3486L58.7037 33.6703L58.5996 34.03L58.4955 34.3328L58.3819 34.6262L58.259 34.9006L58.1265 35.1561L58.0602 35.2697L57.9939 35.3833L57.9182 35.4968L57.833 35.6009L57.7478 35.7049L57.6626 35.7996L57.568 35.8942L57.4734 35.9794L57.3693 36.0552L57.2652 36.1404L57.1516 36.2066L57.0286 36.2823L56.9056 36.3486L56.7732 36.4054L56.6407 36.4622L56.4988 36.5095L56.3475 36.5663L56.1866 36.6042L56.0163 36.642L55.8461 36.6798L55.6568 36.7082L55.4676 36.7366L55.269 36.7556L55.0608 36.7745L55.0609 36.776ZM68.514 39.4069L70.4534 32.4984L70.5292 39.4069H68.514H68.514ZM71.4657 28.3533H66.8489L63.6701 39.4069H58.7695L58.9965 39.3123L59.2236 39.2177L59.4412 39.1231L59.6588 39.019L59.8669 38.9149L60.0656 38.7919L60.2643 38.6784L60.4535 38.5553L60.6427 38.4228L60.8224 38.2903L60.9927 38.1579L61.163 38.0064L61.3238 37.8645L61.4752 37.7036L61.6266 37.5522L61.7685 37.3818L61.9104 37.2209L62.0429 37.0411L62.1658 36.8708L62.2888 36.6815L62.4024 36.4922L62.5065 36.303L62.6106 36.1042L62.7052 35.896L62.7998 35.6878L62.885 35.4796L62.9607 35.2619L63.0364 35.0348L63.0931 34.8077L63.1594 34.5806L63.2067 34.3345L63.2539 34.0979L63.3202 33.7194L63.3769 33.3597L63.4147 33.0191L63.4431 32.6973L63.4531 32.3755L63.4431 32.0821L63.4342 31.7888L63.3964 31.5143L63.3586 31.2588L63.2923 31.0033L63.226 30.7667L63.1314 30.5396L63.0273 30.3219L62.9137 30.1042L62.7813 29.9055L62.6299 29.7162L62.5069 29.5837L62.3839 29.4512L62.2515 29.3377L62.1096 29.2336L61.9582 29.1296L61.8069 29.0349L61.646 28.9497L61.4852 28.874L61.3149 28.7982L61.1446 28.7414L60.9648 28.6846L60.7851 28.6278L60.5959 28.5804L60.4067 28.5426L60.2175 28.5048L60.0188 28.4764L59.612 28.4196L59.2052 28.3912L58.7889 28.3628L58.3632 28.3538H57.5117H56.6697H56.4048H55.9318H55.3452H54.6924H54.0585H53.5193H53.1409H52.9989V12.7103H71.4662V28.3538L71.4657 28.3533ZM82.6861 39.4069H79.9141L84.1147 32.7823L82.6861 39.4069V39.4069ZM93.0077 28.6656L92.9977 32.4984L92.7612 32.8296L92.5436 33.1703L92.326 33.511L92.1273 33.8517L91.9381 34.1924L91.7489 34.5426L91.588 34.8833L91.4272 35.224L91.2758 35.5552L91.1434 35.8959L91.0109 36.2271L90.8974 36.5489L90.7933 36.8706L90.6987 37.183L90.6135 37.4858L90.5378 37.7886L90.4905 37.9874L90.4432 38.1956L90.396 38.3943L90.3581 38.6025L90.3203 38.8012L90.292 39L90.2636 39.1987L90.2447 39.4069H87.5295L89.8474 28.3817L82.0328 28.3727L75.0414 39.4074H74.5305V12.7103H93.0072V28.6661L93.0077 28.6656ZM103.66 43.9211L103.273 43.9873L102.875 44.0441L102.478 44.1009L102.09 44.1483L101.702 44.1861L101.314 44.2145L100.936 44.2335H100.557H100.311L100.065 44.2245L99.8288 44.2056L99.5923 44.1772L99.3653 44.1393L99.1477 44.1015L98.9301 44.0541L98.722 43.9973L98.5233 43.9311L98.3246 43.8649L98.1354 43.7797L97.9557 43.6945L97.7759 43.5904L97.6056 43.4864L97.4448 43.3728L97.2934 43.2593L97.142 43.1268L97.0096 42.9848L96.8771 42.8428L96.7541 42.682L96.6406 42.5211L96.5365 42.3413L96.4419 42.1615L96.3472 41.9722L96.2715 41.7735L96.2052 41.5558L96.1485 41.3381L96.0918 41.111L96.054 40.8744L96.0256 40.6283L96.0067 40.3728L95.9967 40.1078H104.606L103.66 43.9217L103.66 43.9211ZM114.578 39.4069H109.923L110.69 36.3218H101.361L100.595 39.4069H96.0824V38.7729L96.1391 38.5079L96.1864 38.2429L96.2431 37.959L96.2999 37.6751L96.385 37.3628L96.4702 37.0505L96.5649 36.7382L96.669 36.4353L96.7825 36.1325L96.9055 35.8296L97.0379 35.5363L97.1704 35.2429L97.3218 34.9495L97.4731 34.6751L97.634 34.3912L97.8137 34.1262L97.9935 33.8612L98.1732 33.6057L98.3719 33.3596L98.58 33.123L98.7976 32.8959L99.0152 32.6877L99.2517 32.4795L99.4883 32.2807L99.7342 32.1009L99.9991 31.9306L100.264 31.7792L100.538 31.6372L100.822 31.5047L101.115 31.3912L101.418 31.2965L101.73 31.2208L102.052 31.1545L102.383 31.1072L102.724 31.0788L103.074 31.0698L103.348 31.0788L103.623 31.0977L103.897 31.1356L104.162 31.1924L104.294 31.2302L104.417 31.268L104.54 31.3059L104.654 31.3626L104.767 31.41L104.881 31.4762L104.985 31.5425L105.089 31.6087L105.184 31.6939L105.278 31.7791L105.364 31.8643L105.449 31.9683L105.524 32.063L105.591 32.1765L105.647 32.2995L105.704 32.4226L105.751 32.5551L105.789 32.697L105.818 32.839L105.846 32.9999L105.856 33.1608V33.3311V33.5109L105.837 33.7002H111.4L111.485 33.3122L111.561 32.8674L111.599 32.6308L111.618 32.3753L111.636 32.1197V31.8548L111.628 31.5803L111.599 31.2964L111.571 31.1639L111.552 31.0219L111.514 30.88L111.476 30.738L111.429 30.5866L111.382 30.4447L111.325 30.3027L111.259 30.1607L111.193 30.0188L111.107 29.8768L111.022 29.7349L110.928 29.5929L110.814 29.4415L110.691 29.2996L110.568 29.1576L110.436 29.0251L110.294 28.8926L110.142 28.7696L109.991 28.656L109.83 28.5425L109.66 28.4289L109.489 28.3343L109.31 28.2396L109.121 28.145L108.931 28.0598L108.733 27.9746L108.524 27.8989L108.316 27.8231L108.108 27.7569L107.881 27.7001L107.664 27.6433L107.427 27.5865L107.191 27.5391L106.954 27.4917L106.708 27.4539L106.453 27.4255L105.932 27.3687L105.402 27.3213L104.844 27.3024L104.277 27.2934L103.851 27.3024L103.406 27.3114L102.943 27.3398L102.46 27.3776L101.959 27.4344L101.448 27.5006L100.928 27.5858L100.398 27.6994L100.133 27.7562L99.8585 27.8224L99.5936 27.8982L99.3192 27.9739L99.0449 28.0591L98.7705 28.1537L98.4962 28.2484L98.2313 28.3524L97.9569 28.466L97.6825 28.589L97.4176 28.712L97.1433 28.8445L96.8784 28.9865L96.6135 29.1379L96.3486 29.2893L96.0837 29.4597V12.7089H114.579V39.406L114.578 39.4069Z" fill="#77787C"></path>
</svg>
