<?xml version="1.0" encoding="UTF-8"?>
<svg xmlns="http://www.w3.org/2000/svg" width="112" height="25" viewBox="0 0 112 25" fill="none">
  <path fill-rule="evenodd" clip-rule="evenodd" d="M40.8525 23.9375H37.8525V0.75H40.8525V23.9275V23.9375ZM12.0975 23.9375V14.4525L20.3975 1.54H16.7375L10.545 11.36L4.3225 1.54H0.692505L8.9875 14.5V23.9375H12.0975ZM30.3325 10.4875L30.455 8.6275H33.17V23.9375H30.455L30.3325 22.0775C29.4475 23.2375 27.8325 24.2425 25.4225 24.2425C21.2125 24.2425 18.3475 20.8875 18.3475 16.2825C18.3475 11.6775 21.215 8.3225 25.4225 8.3225C27.8325 8.3225 29.4475 9.3275 30.3325 10.4875ZM21.365 16.2825C21.365 19.455 23.2875 21.5875 25.97 21.5875C28.0125 21.5875 29.265 20.49 30.18 18.995V13.5675C29.265 12.0675 28.015 10.975 25.97 10.975C23.28 10.975 21.365 13.11 21.365 16.2825ZM56.13 10.4875L56.2525 8.6275H58.965V23.9375H56.2525L56.13 22.0775C55.245 23.2375 53.63 24.2425 51.22 24.2425C47.01 24.2425 44.145 20.8875 44.145 16.2825C44.145 11.6775 47.0125 8.3225 51.22 8.3225C53.6275 8.3225 55.245 9.3275 56.13 10.4875ZM47.1625 16.2825C47.1625 19.455 49.085 21.5875 51.7675 21.5875C53.81 21.5875 55.0625 20.49 55.9775 18.995V13.5675C55.0625 12.0675 53.8125 10.975 51.7675 10.975C49.085 10.975 47.1625 13.11 47.1625 16.2825ZM77.1375 14.8775V23.935H74.1375V15.06C74.1375 12.7425 72.765 11.155 70.6 11.155C68.8 11.155 67.58 12.2525 66.635 13.595V23.9325H63.635V8.6275H66.35L66.47 10.4875C67.355 9.36 68.97 8.3225 71.32 8.3225C75.03 8.3225 77.1375 10.945 77.1375 14.8775ZM90.2475 8.6275H85.4425V3.4425H82.4425V8.6275H79.4425V11.195H82.4425V18.82C82.4425 22.3575 84.5475 24.25 87.81 24.25C88.9679 24.279 90.1101 23.9772 91.1025 23.38L90.2475 21.0325C89.8025 21.32 89.09 21.5325 88.0525 21.5325C86.4975 21.5325 85.43 20.5525 85.43 18.7825V11.1875H90.2475V8.6275ZM96.56 23.9375H93.56V8.6275H96.56V23.9375ZM110.03 12.3175L111.32 10C110.13 9.0225 108.28 8.3225 106.223 8.3175C102.653 8.3175 100.427 10.025 100.427 12.9225C100.427 15.3325 101.952 16.5825 105.52 17.4075C107.868 17.95 108.783 18.4075 108.783 19.6575C108.783 20.9675 107.533 21.5775 105.702 21.5775C104.064 21.6125 102.47 21.049 101.217 19.9925L99.845 22.3725C101.217 23.5 103.353 24.2325 105.67 24.2325C109.42 24.2325 111.8 22.38 111.8 19.4825C111.8 17.1675 110.183 15.7025 106.615 14.8475C104.298 14.3 103.412 13.9975 103.412 12.745C103.412 11.4925 104.51 10.975 106.217 10.975C107.605 10.971 108.951 11.4451 110.03 12.3175Z" fill="white"></path>
  <path d="M97.0475 3.68748C97.0475 4.76582 96.1733 5.63998 95.095 5.63998C94.0166 5.63998 93.1425 4.76582 93.1425 3.68748C93.1425 2.60914 94.0166 1.73498 95.095 1.73498C95.6165 1.72252 96.1204 1.92423 96.4893 2.29313C96.8582 2.66203 97.0599 3.16593 97.0475 3.68748Z" fill="#FF6300"></path>
</svg>
