<?xml version="1.0" encoding="UTF-8"?>
<svg xmlns="http://www.w3.org/2000/svg" width="217" height="50" viewBox="0 0 217 50" fill="none">
  <g clip-path="url(#clip0_1239_734140)">
    <path d="M45.6696 37.7857C47.8444 34.0714 49.1071 29.6429 49.1071 25C49.1071 11.2143 38.0931 0 24.5536 0C11.014 0 0 11.2143 0 25C0 38.7857 11.014 50 24.5536 50C29.1135 50 33.463 48.7143 37.111 46.5L46.5115 48.8571C47.4235 49.0714 48.1952 48.2857 47.9847 47.3571L45.6696 37.7857ZM34.5153 34C34.5153 34.7143 33.9541 35.2143 33.3227 35.2143H16.486C15.7844 35.2143 15.2934 34.6429 15.2934 34V18.9286C15.2934 18.5714 15.4337 18.2143 15.7143 18L24.1327 10.5714C24.5536 10.1429 25.2551 10.1429 25.7462 10.5714L34.1645 18C34.4452 18.2143 34.5855 18.5714 34.5855 18.9286V34H34.5153Z" fill="url(#paint0_linear_1239_734140)"></path>
    <path d="M66.2898 10.193H74.8288V3.46241H77.3588V19.4875H74.8288V12.6196H66.2898V19.4417H63.7598V3.41663H66.2898V10.193Z" fill="white"></path>
    <path d="M92.0118 13.8049C92.0118 17.1015 89.5269 19.574 86.1836 19.574C82.8403 19.574 80.3555 17.1015 80.3555 13.8049C80.3555 10.5083 82.8403 8.03589 86.1836 8.03589C89.5269 8.03589 92.0118 10.5083 92.0118 13.8049ZM82.7952 13.8049C82.7952 15.8653 84.2409 17.3304 86.1836 17.3304C88.1263 17.3304 89.5721 15.9111 89.5721 13.8049C89.5721 11.6988 88.1263 10.2794 86.1836 10.2794C84.2409 10.2794 82.7952 11.7446 82.7952 13.8049Z" fill="white"></path>
    <path d="M111.785 12.5728V19.4407H109.435V13.3512C109.435 11.5197 108.486 10.4667 106.905 10.4667C105.369 10.4667 104.104 11.474 104.104 13.3512V19.4407H101.755V13.3512C101.755 11.5197 100.806 10.4667 99.2247 10.4667C97.6886 10.4667 96.4236 11.474 96.4236 13.3512V19.4407H94.0742V8.49786H96.4236V9.82565C97.282 8.54365 98.6374 8.22314 99.7217 8.22314C101.348 8.22314 102.704 8.95572 103.472 10.1919C104.42 8.63522 106.092 8.22314 107.402 8.22314C109.977 8.22314 111.785 10.0088 111.785 12.5728Z" fill="white"></path>
    <path d="M124.767 13.8049C124.767 14.1254 124.767 14.4001 124.722 14.6749H116.725C117.041 16.6437 118.396 17.4678 119.933 17.4678C121.017 17.4678 122.146 17.0557 123.05 16.3232L124.225 18.0172C122.914 19.1619 121.424 19.574 119.797 19.574C116.544 19.574 114.285 17.2847 114.285 13.8049C114.285 10.371 116.499 8.03589 119.662 8.03589C122.689 8.03589 124.767 10.371 124.767 13.8049ZM116.725 12.8434H122.327C122.056 11.1493 121.062 10.142 119.571 10.142C117.9 10.142 116.996 11.2409 116.725 12.8434Z" fill="white"></path>
    <path d="M144.001 6.48345L141.877 7.90281C140.928 6.48345 139.347 5.61351 137.45 5.61351C134.242 5.61351 131.847 7.99439 131.847 11.4283C131.847 14.8623 134.197 17.2432 137.45 17.2432C139.302 17.2432 140.883 16.3732 141.832 14.9539L143.91 16.5106C142.555 18.5252 140.205 19.7614 137.45 19.7614C132.615 19.7614 129.182 16.2359 129.182 11.4741C129.182 6.71238 132.615 3.18686 137.45 3.18686C140.251 3.14107 142.781 4.42308 144.001 6.48345Z" fill="white"></path>
    <path d="M157.101 13.9922C157.101 17.2888 154.616 19.7612 151.273 19.7612C147.93 19.7612 145.49 17.2888 145.49 13.9922C145.49 10.6956 147.975 8.22314 151.318 8.22314C154.662 8.22314 157.101 10.6956 157.101 13.9922ZM147.93 13.9922C147.93 16.0526 149.376 17.5177 151.318 17.5177C153.261 17.5177 154.707 16.0983 154.707 13.9922C154.707 11.886 153.261 10.4667 151.318 10.4667C149.376 10.4667 147.93 11.9318 147.93 13.9922Z" fill="white"></path>
    <path d="M169.526 12.5728V19.4407H167.177V13.3512C167.177 11.5197 166.228 10.4667 164.647 10.4667C163.11 10.4667 161.845 11.474 161.845 13.3512V19.4407H159.496V8.49786H161.845V9.82565C162.704 8.54365 164.059 8.22314 165.144 8.22314C167.719 8.22314 169.526 10.0088 169.526 12.5728Z" fill="white"></path>
    <path d="M182.629 12.5728V19.4407H180.28V13.3512C180.28 11.5197 179.331 10.4667 177.75 10.4667C176.214 10.4667 174.949 11.474 174.949 13.3512V19.4407H172.6V8.49786H174.949V9.82565C175.807 8.54365 177.163 8.22314 178.247 8.22314C180.822 8.22314 182.629 10.0088 182.629 12.5728Z" fill="white"></path>
    <path d="M195.368 13.9922C195.368 14.3127 195.323 14.5874 195.323 14.8621H187.326C187.643 16.8309 188.998 17.6551 190.534 17.6551C191.618 17.6551 192.748 17.243 193.652 16.5104L194.826 18.2045C193.516 19.3491 192.025 19.7612 190.399 19.7612C187.146 19.7612 184.887 17.4719 184.887 13.9922C184.887 10.5582 187.101 8.22314 190.263 8.22314C193.29 8.22314 195.368 10.5582 195.368 13.9922ZM187.372 13.0307H192.974C192.703 11.3366 191.709 10.3293 190.218 10.3293C188.546 10.3293 187.597 11.4282 187.372 13.0307Z" fill="white"></path>
    <path d="M206.707 9.96301L205.217 11.6113C204.449 10.8787 203.68 10.4667 202.641 10.4667C200.834 10.4667 199.434 11.886 199.434 13.9922C199.434 16.0983 200.789 17.5177 202.641 17.5177C203.68 17.5177 204.584 17.0141 205.307 16.3731L206.753 18.0213C205.759 19.166 204.313 19.7612 202.732 19.7612C199.298 19.7612 197.039 17.2888 197.039 13.9922C197.039 10.6956 199.298 8.22314 202.732 8.22314C204.268 8.22314 205.759 8.81836 206.707 9.96301Z" fill="white"></path>
    <path d="M216.286 10.6958H212.129V15.4576C212.129 16.9227 212.897 17.518 213.846 17.518C214.569 17.518 215.382 17.1975 216.015 16.7854L216.963 18.7084C216.105 19.3036 215.021 19.8073 213.665 19.8073C211.226 19.8073 209.78 18.4795 209.78 15.5492V10.6958H207.611V8.54391H209.78V5.24731H212.129V8.54391H216.286V10.6958Z" fill="white"></path>
    <path d="M64.2871 48.6215V33.6865H73.8549V35.9545H66.9926V40.0091H73.1986V42.2771H66.9926V48.6215H64.2871Z" fill="white"></path>
    <path d="M89.665 41.154C89.665 42.7632 89.3636 44.1415 88.7608 45.2889C88.1628 46.4314 87.346 47.3065 86.3105 47.9142C85.2798 48.5219 84.1106 48.8257 82.8028 48.8257C81.495 48.8257 80.3233 48.5219 79.2878 47.9142C78.2571 47.3016 77.4404 46.4241 76.8375 45.2816C76.2395 44.1342 75.9405 42.7584 75.9405 41.154C75.9405 39.5448 76.2395 38.169 76.8375 37.0265C77.4404 35.8791 78.2571 35.0016 79.2878 34.3939C80.3233 33.7862 81.495 33.4823 82.8028 33.4823C84.1106 33.4823 85.2798 33.7862 86.3105 34.3939C87.346 35.0016 88.1628 35.8791 88.7608 37.0265C89.3636 38.169 89.665 39.5448 89.665 41.154ZM86.9449 41.154C86.9449 40.0212 86.7675 39.0659 86.4126 38.2881C86.0625 37.5053 85.5764 36.9146 84.9541 36.516C84.3318 36.1125 83.6147 35.9107 82.8028 35.9107C81.9909 35.9107 81.2738 36.1125 80.6515 36.516C80.0292 36.9146 79.5406 37.5053 79.1857 38.2881C78.8357 39.0659 78.6606 40.0212 78.6606 41.154C78.6606 42.2868 78.8357 43.2445 79.1857 44.0273C79.5406 44.8051 80.0292 45.3958 80.6515 45.7993C81.2738 46.198 81.9909 46.3973 82.8028 46.3973C83.6147 46.3973 84.3318 46.198 84.9541 45.7993C85.5764 45.3958 86.0625 44.8051 86.4126 44.0273C86.7675 43.2445 86.9449 42.2868 86.9449 41.154Z" fill="white"></path>
    <path d="M92.2229 48.6215V33.6865H97.8235C98.9709 33.6865 99.9335 33.8858 100.711 34.2845C101.494 34.6831 102.085 35.2422 102.483 35.9618C102.887 36.6764 103.089 37.5102 103.089 38.4631C103.089 39.4208 102.885 40.2522 102.476 40.9571C102.073 41.6572 101.477 42.1993 100.69 42.5834C99.9019 42.9626 98.9344 43.1522 97.7871 43.1522H93.7981V40.9061H97.4225C98.0934 40.9061 98.6427 40.8137 99.0706 40.629C99.4984 40.4394 99.8144 40.1647 100.019 39.8049C100.228 39.4403 100.332 38.993 100.332 38.4631C100.332 37.9332 100.228 37.481 100.019 37.1067C99.8095 36.7275 99.4911 36.4406 99.0633 36.2462C98.6354 36.0468 98.0836 35.9472 97.4079 35.9472H94.9284V48.6215H92.2229ZM99.9384 41.8541L103.636 48.6215H100.617L96.9849 41.8541H99.9384Z" fill="white"></path>
    <path fill-rule="evenodd" clip-rule="evenodd" d="M142.135 40.2571C143.338 39.7739 144.117 38.5773 144.095 37.2656C144.095 34.5732 142.246 33.2385 139.708 33.2385H133.049V47.874H140.287C142.514 47.874 144.696 46.2632 144.696 43.8009C144.696 40.8784 142.135 40.2801 142.135 40.2571ZM136.523 36.2761H139.106C139.797 36.2301 140.398 36.7823 140.442 37.4957C140.442 37.5417 140.442 37.6108 140.442 37.6568C140.42 38.4162 139.841 38.9915 139.106 38.9915H136.501L136.523 36.2761ZM139.129 44.8134H136.545V41.937H139.062C140.331 41.937 140.932 42.5123 140.932 43.3637C140.932 44.4222 140.175 44.8134 139.129 44.8134Z" fill="#D93733"></path>
    <path fill-rule="evenodd" clip-rule="evenodd" d="M152.358 32.8702C148.261 32.8702 145.855 36.253 145.855 40.5332C145.855 44.8134 148.261 48.1961 152.358 48.1961C156.456 48.1961 158.861 44.8364 158.861 40.5332C158.861 36.23 156.478 32.8702 152.358 32.8702ZM152.358 44.6983C150.354 44.6983 149.352 42.8343 149.352 40.5332C149.352 38.232 150.354 36.391 152.358 36.391C154.363 36.391 155.387 38.255 155.387 40.5332C155.387 42.8574 154.363 44.6983 152.358 44.6983Z" fill="#D93733"></path>
    <path fill-rule="evenodd" clip-rule="evenodd" d="M166.408 38.9914L165.918 38.8764C164.716 38.6232 163.758 38.3011 163.758 37.4036C163.758 36.4371 164.671 36.0459 165.473 36.0459C166.587 36.0689 167.633 36.5522 168.368 37.4036L170.573 35.1485C169.571 33.9749 167.945 32.8473 165.406 32.8473C162.422 32.8473 160.151 34.5732 160.151 37.4496C160.151 40.073 161.977 41.3617 164.204 41.8449L164.694 41.96C166.542 42.3512 167.232 42.6503 167.232 43.5708C167.232 44.4452 166.475 45.0205 165.317 45.0205C163.936 45.0205 162.689 44.3992 161.732 43.1336L159.482 45.4347C160.73 46.9765 162.311 48.1731 165.362 48.1731C168.012 48.1731 170.84 46.6083 170.84 43.4097C170.885 40.073 168.435 39.4287 166.408 38.9914Z" fill="#D93733"></path>
    <path fill-rule="evenodd" clip-rule="evenodd" d="M178.77 44.6985C177.212 44.6985 175.586 43.3638 175.586 40.4413C175.586 37.841 177.1 36.3912 178.681 36.3912C179.928 36.3912 180.663 36.9895 181.242 38.0251L184.093 36.0691C182.668 33.8369 180.975 32.8934 178.637 32.8934C174.361 32.8934 172.045 36.3222 172.045 40.4643C172.045 44.8135 174.606 48.2193 178.592 48.2193C181.398 48.2193 182.734 47.2068 184.182 45.0437L181.309 43.0416C180.73 44.0081 180.107 44.6985 178.77 44.6985Z" fill="#D93733"></path>
    <path fill-rule="evenodd" clip-rule="evenodd" d="M193.599 33.2385V38.6233H189.301V33.2385H185.582V47.874H189.301V42.0981H193.599V47.874H197.318V33.2385H193.599Z" fill="#D93733"></path>
    <path d="M118.769 31.25C113.775 31.25 109.719 35.441 109.719 40.6022C109.719 45.7633 113.775 49.9544 118.769 49.9544C123.764 49.9544 127.82 45.7633 127.82 40.6022C127.82 35.441 123.764 31.25 118.769 31.25ZM118.769 49.0812C114.244 49.0812 110.564 45.2783 110.564 40.6022C110.564 35.9261 114.244 32.1231 118.769 32.1231C123.295 32.1231 126.975 35.9261 126.975 40.6022C126.975 45.2783 123.295 49.0812 118.769 49.0812Z" fill="white"></path>
    <path d="M122.503 34.762H121.883V37.9634H115.668V34.762H115.029C111.912 36.8963 111.049 41.2231 113.114 44.4634C113.621 45.2589 114.278 45.938 115.029 46.4425H115.668V43.241H121.883V46.4425H122.503C125.62 44.3082 126.484 39.9813 124.437 36.7605C123.93 35.9649 123.273 35.2858 122.503 34.762ZM114.804 45.1813C112.363 42.9306 112.138 39.05 114.316 36.5276C114.466 36.353 114.635 36.1784 114.804 36.0231V45.1813ZM121.883 42.3485H115.668V38.8366H121.883V42.3485ZM122.728 45.1619V43.2216V37.9634V36.0231C125.169 38.2933 125.376 42.1739 123.179 44.6962C123.029 44.8514 122.878 45.0067 122.728 45.1619Z" fill="white"></path>
  </g>
  <defs>
    <linearGradient id="paint0_linear_1239_734140" x1="5.58079" y1="2.9019" x2="53.1254" y2="50.4465" gradientUnits="userSpaceOnUse">
      <stop stop-color="#385FE6"></stop>
      <stop offset="1" stop-color="#5ABFFD"></stop>
    </linearGradient>
    <clipPath id="clip0_1239_734140">
      <rect width="216.96" height="50" fill="white"></rect>
    </clipPath>
  </defs>
</svg>
