<?xml version="1.0" encoding="UTF-8"?>
<svg xmlns="http://www.w3.org/2000/svg" width="124" height="50" viewBox="0 0 124 50" fill="none">
  <g clip-path="url(#clip0_1239_734139)">
    <path d="M96.8276 0V24.9474L96.5122 25.2103L96.1968 25.4732L95.8946 25.7492L95.6055 26.0252L95.3296 26.3012L95.0537 26.5904L94.7909 26.8796L94.5281 27.1688V0H66.895V22.7129H64.6086V0H36.9755V22.7524H34.6892V0H7.05611V25.9332L0 49.4479H6.20201L9.31616 39.0378H10.2097L15.3605 49.4479H22.8502L17.857 39.0378H29.1836L26.0432 49.4479H32.8102L35.9112 39.0641H37.4092V39.0378H39.5378H39.7086H52.4937L49.4978 49.4216H56.3305L59.2344 39.0378H62.3092L62.3879 49.4216H68.1169L74.7 39.0378H79.0099L76.7761 49.4216H83.5037L85.6981 39.0378H89.5874L89.5612 39.6292L89.5751 40.2339L89.6013 40.8122L89.6539 41.3906L89.6932 41.6666L89.7326 41.9426L89.7851 42.2186L89.8377 42.4947L89.9033 42.7707L89.969 43.0336L90.0477 43.2964L90.1265 43.5593L90.2186 43.8222L90.3106 44.0719L90.4157 44.3217L90.5209 44.5583L90.6392 44.808L90.7575 45.0446L90.8889 45.2681L91.0204 45.5046L91.165 45.7281L91.3226 45.9384L91.4803 46.1619L91.6511 46.359L91.822 46.5693L91.9928 46.7665L92.1899 46.9636L92.387 47.1476L92.6366 47.358L92.8863 47.5683L93.1491 47.7654L93.425 47.9494L93.701 48.1335L93.9769 48.3043L94.266 48.4488L94.5682 48.6066L94.8573 48.738L95.1595 48.8694L95.4617 48.9877L95.7771 49.1061L96.0924 49.2113L96.4078 49.3033L96.7231 49.3953L97.0385 49.4741L97.6692 49.6187L98.3131 49.7239L98.9438 49.8159L99.5745 49.8948L100.192 49.9473L100.796 49.9737L101.388 50H101.953L102.715 49.9875L103.477 49.9751L104.252 49.9356L105.028 49.8962L105.803 49.8304L106.578 49.7646L107.353 49.6857L108.129 49.5937L108.917 49.4885L109.705 49.3702L110.494 49.2387L111.282 49.1073L112.07 48.9628L112.859 48.8051L113.647 48.6474L114.449 48.4633L116.788 39.0391H124.461V0.00121602H96.8283L96.8276 0ZM9.61837 38.0652L9.65776 37.9207L9.74982 38.0652H9.61837ZM33.6906 24.0799L33.2964 25.4075L29.6172 37.6314L29.4727 38.0652H17.384L16.4511 36.0673L29.4727 22.7524H21.1026L10.9192 33.7276L14.2173 22.7524H8.04156V0.985813H33.6905V24.0799H33.6906ZM40.8255 34.4111L40.6284 34.4236L40.4445 34.4361L40.2474 34.4485H40.0371H39.7612H39.5247L39.3013 34.461H39.091L37.4486 34.4485L38.2107 31.6357L38.5655 30.2424L39.4327 26.9696H39.7086H39.9977L40.2736 26.9571H40.5364H41.811L42.5863 26.9696L43.2958 26.9959L43.6112 27.0084L43.9134 27.0347L44.2025 27.0742L44.4652 27.1136L44.7018 27.1531L44.9251 27.2189L45.1354 27.2847L45.3193 27.3635L45.477 27.4424L45.6216 27.5477L45.753 27.6529L45.8581 27.7843L45.9237 27.8895L45.9762 27.9948L46.0288 28.1131L46.0681 28.2445L46.0944 28.389L46.1083 28.5336V28.6913V28.8622L46.0944 29.0462L46.082 29.2302L46.0427 29.4405L46.0033 29.6508L45.885 30.0977L45.7404 30.5972L45.5958 31.0178L45.4381 31.4252L45.2673 31.8064L45.0833 32.1613L44.9913 32.319L44.8992 32.4768L44.794 32.6345L44.6757 32.779L44.5574 32.9235L44.4391 33.055L44.3076 33.1864L44.1762 33.3047L44.0316 33.4099L43.887 33.5283L43.7294 33.6202L43.5585 33.7255L43.3877 33.8175L43.2038 33.8963L43.0198 33.9752L42.8227 34.041L42.6125 34.1199L42.3891 34.1724L42.1526 34.225L41.9161 34.2775L41.6532 34.317L41.3905 34.3564L41.1145 34.3827L40.8254 34.4091L40.8255 34.4111ZM59.5104 38.0652L62.2041 28.47L62.3092 38.0652H59.5105H59.5104ZM63.61 22.7129H57.1978L52.7828 38.0652H45.9763L46.2917 37.9338L46.607 37.8023L46.9093 37.6709L47.2115 37.5264L47.5006 37.3819L47.7765 37.211L48.0524 37.0533L48.3152 36.8824L48.578 36.6984L48.8277 36.5144L49.0642 36.3304L49.3007 36.12L49.5241 35.9229L49.7343 35.6994L49.9446 35.4891L50.1417 35.2525L50.3388 35.0291L50.5227 34.7793L50.6935 34.5427L50.8644 34.2799L51.022 34.017L51.1666 33.7541L51.3112 33.4781L51.4426 33.1889L51.5741 32.8997L51.6924 32.6106L51.7974 32.3083L51.9026 31.9928L51.9814 31.6773L52.0735 31.3619L52.1391 31.0201L52.2048 30.6916L52.2968 30.1658L52.3756 29.6663L52.4281 29.1931L52.4675 28.7462L52.4814 28.2993L52.4675 27.8919L52.4552 27.4844L52.4026 27.1032L52.3501 26.7483L52.2581 26.3934L52.166 26.0648L52.0345 25.7494L51.89 25.4471L51.7323 25.1448L51.5483 24.8687L51.3381 24.6059L51.1673 24.4218L50.9965 24.2378L50.8125 24.0801L50.6154 23.9356L50.4052 23.791L50.1949 23.6596L49.9716 23.5413L49.7482 23.4361L49.5117 23.3308L49.2751 23.2519L49.0255 23.1731L48.7758 23.0942L48.513 23.0284L48.2502 22.9758L47.9874 22.9233L47.7115 22.8839L47.1465 22.805L46.5815 22.7655L46.0033 22.7261L45.412 22.7136H44.2294H43.06H42.6921H42.0351H41.2204H40.3138H39.4334H38.6844H38.1588H37.9617V0.986515H63.6107V22.7136L63.61 22.7129ZM79.1939 38.0652H75.3439L81.178 28.8643L79.1939 38.0652ZM93.5295 23.1467L93.5156 28.47L93.1871 28.9301L92.8848 29.4032L92.5826 29.8764L92.3067 30.3496L92.0439 30.8228L91.7811 31.3091L91.5577 31.7823L91.3343 32.2555L91.1241 32.7155L90.9401 33.1887L90.7562 33.6488L90.5985 34.0957L90.4539 34.5426L90.3225 34.9763L90.2042 35.3969L90.099 35.8175L90.0333 36.0936L89.9677 36.3827L89.902 36.6588L89.8495 36.9479L89.797 37.2239L89.7576 37.5L89.7182 37.776L89.692 38.0652H85.9208L89.1401 22.7524L78.2866 22.7399L68.5762 38.0659H67.8667V0.986484H93.5288V23.1473L93.5295 23.1467ZM108.325 44.3349L107.786 44.4269L107.234 44.5058L106.682 44.5846L106.144 44.6504L105.605 44.703L105.066 44.7424L104.541 44.7687H104.015H103.673L103.332 44.7563L103.003 44.7299L102.675 44.6905L102.359 44.6379L102.057 44.5854L101.755 44.5196L101.466 44.4407L101.19 44.3488L100.914 44.2568L100.651 44.1384L100.402 44.0201L100.152 43.8756L99.9154 43.7311L99.692 43.5734L99.4818 43.4156L99.2716 43.2316L99.0876 43.0345L98.9037 42.8373L98.7328 42.6138L98.5752 42.3904L98.4306 42.1407L98.2991 41.8909L98.1677 41.628L98.0625 41.352L97.9704 41.0497L97.8916 40.7474L97.8129 40.4319L97.7604 40.1033L97.721 39.7616L97.6947 39.4067L97.6808 39.0387H109.638L108.324 44.3357L108.325 44.3349ZM123.488 38.0652H117.024L118.088 33.7802H105.132L104.068 38.0652H97.7999V37.1845L97.8787 36.8165L97.9443 36.4485L98.0231 36.0541L98.1019 35.6598L98.2202 35.2261L98.3385 34.7923L98.47 34.3586L98.6145 33.9379L98.7722 33.5173L98.943 33.0967L99.127 32.6893L99.311 32.2818L99.5212 31.8743L99.7314 31.4932L99.9548 31.0988L100.204 30.7308L100.454 30.3628L100.704 30.0079L100.98 29.6661L101.269 29.3375L101.571 29.0221L101.873 28.7329L102.202 28.4437L102.53 28.1677L102.872 27.918L103.24 27.6814L103.608 27.4711L103.989 27.2739L104.383 27.0899L104.79 26.9322L105.211 26.8007L105.644 26.6955L106.091 26.6035L106.551 26.5377L107.024 26.4983L107.51 26.4858L107.891 26.4983L108.272 26.5246L108.653 26.5772L109.021 26.6561L109.205 26.7086L109.376 26.7611L109.547 26.8137L109.705 26.8926L109.862 26.9584L110.02 27.0503L110.165 27.1423L110.309 27.2343L110.441 27.3526L110.572 27.471L110.69 27.5893L110.809 27.7338L110.914 27.8652L111.006 28.0229L111.085 28.1938L111.163 28.3647L111.229 28.5487L111.282 28.7459L111.321 28.943L111.36 29.1665L111.374 29.3899V29.6265V29.8763L111.348 30.1391H119.074L119.193 29.6002L119.298 28.9825L119.35 28.6539L119.377 28.299L119.403 27.9441V27.576L119.39 27.1949L119.351 26.8006L119.312 26.6165L119.285 26.4194L119.233 26.2222L119.18 26.025L119.115 25.8147L119.049 25.6176L118.97 25.4204L118.878 25.2233L118.786 25.0261L118.668 24.8289L118.55 24.6318L118.418 24.4346L118.26 24.2243L118.09 24.0272L117.919 23.83L117.735 23.646L117.538 23.462L117.327 23.2911L117.117 23.1334L116.894 22.9756L116.657 22.8179L116.421 22.6865L116.171 22.5551L115.908 22.4236L115.646 22.3053L115.37 22.187L115.081 22.0818L114.791 21.9765L114.502 21.8845L114.187 21.8057L113.885 21.7268L113.556 21.6479L113.228 21.5821L112.899 21.5163L112.558 21.4638L112.203 21.4243L111.48 21.3454L110.744 21.2797L109.969 21.2533L109.181 21.2408L108.589 21.2533L107.972 21.2658L107.328 21.3052L106.658 21.3578L105.962 21.4366L105.252 21.5286L104.529 21.6469L103.793 21.8047L103.426 21.8836L103.044 21.9755L102.677 22.0808L102.295 22.186L101.914 22.3043L101.533 22.4358L101.152 22.5672L100.784 22.7117L100.403 22.8694L100.022 23.0403L99.6544 23.2112L99.2733 23.3952L98.9054 23.5923L98.5375 23.8026L98.1696 24.013L97.8017 24.2495V0.984582H123.49V38.0639L123.488 38.0652Z" fill="#2F9CFF"></path>
  </g>
  <defs>
    <clipPath id="clip0_1239_734139">
      <rect width="124" height="50" fill="white"></rect>
    </clipPath>
  </defs>
</svg>
