<?xml version="1.0" encoding="UTF-8"?>
<svg xmlns="http://www.w3.org/2000/svg" width="336" height="50" viewBox="0 0 336 50" fill="none">
  <path d="M52.0956 20.9885H45.0371V16.6523H64.3177V20.9885H57.2547V37.9308H52.0956V20.9885Z" fill="white"></path>
  <path d="M145.338 20.9885H138.279V16.6523H157.558V20.9885H150.497V37.9308H145.338V20.9885Z" fill="white"></path>
  <path d="M77.8405 34.7448C81.8418 34.7448 84.4554 31.6024 84.4554 27.2821C84.4554 22.9596 81.8418 19.8194 77.8405 19.8194C73.8393 19.8194 71.2256 22.9596 71.2256 27.2821C71.2256 31.6024 73.8393 34.7448 77.8405 34.7448ZM77.8405 15.8516C84.6192 15.8516 89.56 20.3061 89.56 27.2821C89.56 34.2583 84.6192 38.7127 77.8405 38.7127C71.0618 38.7127 66.1211 34.2583 66.1211 27.2821C66.1211 20.3061 71.0618 15.8516 77.8405 15.8516Z" fill="white"></path>
  <path d="M124.743 34.7448C128.744 34.7448 131.357 31.6024 131.357 27.2821C131.357 22.9596 128.744 19.8194 124.743 19.8194C120.744 19.8194 118.128 22.9596 118.128 27.2821C118.128 31.6024 120.744 34.7448 124.743 34.7448ZM124.743 15.8516C131.524 15.8516 136.462 20.3061 136.462 27.2821C136.462 34.2583 131.524 38.7127 124.743 38.7127C117.964 38.7127 113.025 34.2583 113.025 27.2821C113.025 20.3061 117.964 15.8516 124.743 15.8516Z" fill="white"></path>
  <path d="M113.108 16.6523H107.48L101.234 25.5361L94.9872 16.6523H89.4414L98.8383 29.952V37.9307H103.524V30.0679L113.108 16.6523Z" fill="white"></path>
  <path d="M171.472 29.6427L168.164 21.0068L164.707 29.6427H171.472ZM171.376 16.6523L180.157 37.9308H174.79L173.064 33.5833H163.139L161.372 37.9308H156.131L164.845 16.6523H171.376Z" fill="white"></path>
  <path d="M248.018 38.7348C240.883 38.7348 237.527 34.7647 237.527 29.7464V16.6719H242.409V28.6208C242.409 31.736 243.712 34.5941 248.018 34.5941C252.293 34.5941 253.894 31.736 253.894 28.6208V16.6719H258.773V29.7464C258.773 34.7647 255.125 38.7348 248.018 38.7348Z" fill="white"></path>
  <path d="M198.56 20.9885H191.502V16.6523H210.783V20.9885H203.72V37.9308H198.56V20.9885Z" fill="white"></path>
  <path d="M323.915 34.7448C327.911 34.7448 330.527 31.6024 330.527 27.2821C330.527 22.9596 327.911 19.8194 323.915 19.8194C319.911 19.8194 317.295 22.9596 317.295 27.2821C317.295 31.6024 319.911 34.7448 323.915 34.7448ZM323.915 15.8516C330.691 15.8516 335.63 20.3061 335.63 27.2821C335.63 34.2583 330.691 38.7127 323.915 38.7127C317.134 38.7127 312.195 34.2583 312.195 27.2821C312.195 20.3061 317.134 15.8516 323.915 15.8516Z" fill="white"></path>
  <path d="M287.107 16.6523H292.08V24.9655H303.613V16.6523H308.581V37.9307H303.613V29.3016H292.08V37.9307H287.107V16.6523Z" fill="white"></path>
  <path d="M214.254 22.5116C214.254 17.9731 218.914 15.8516 223.516 15.8516C227.743 15.8516 231.717 17.6252 233.079 22.0614H228.259C227.656 20.7949 226.337 19.7103 223.516 19.7103C220.548 19.7103 218.858 20.9063 218.858 22.498C218.858 26.3862 233.516 23.287 233.516 31.5387C233.516 36.7935 228.612 38.7354 223.782 38.7354C217.993 38.7354 214.024 35.8635 213.455 31.2272H218.086C218.446 32.3346 219.779 34.6903 223.782 34.6903C225.775 34.6903 228.732 34.1424 228.732 31.632C228.732 27.2935 214.254 30.8861 214.254 22.5116Z" fill="white"></path>
  <path d="M263.58 22.5116C263.58 17.9731 268.241 15.8516 272.84 15.8516C277.069 15.8516 281.041 17.6252 282.403 22.0614H277.585C276.985 20.7949 275.661 19.7103 272.84 19.7103C269.874 19.7103 268.186 20.9063 268.186 22.498C268.186 26.3862 282.844 23.287 282.844 31.5387C282.844 36.7935 277.942 38.7354 273.106 38.7354C267.319 38.7354 263.35 35.8635 262.781 31.2272H267.415C267.772 32.3346 269.105 34.6903 273.106 34.6903C275.099 34.6903 278.056 34.1424 278.056 31.632C278.056 27.2935 263.58 30.8861 263.58 22.5116Z" fill="white"></path>
  <path d="M37.1463 9.53125C35.9273 9.53125 34.9395 10.5219 34.9395 11.7357C34.9395 12.9574 35.9273 13.9432 37.1463 13.9432C38.3654 13.9432 39.3517 12.9574 39.3517 11.7357C39.3517 10.5219 38.3654 9.53125 37.1463 9.53125Z" fill="#4C96F3"></path>
  <path d="M2.83811 30.6797C1.61909 30.6797 0.632812 31.664 0.632812 32.8856C0.632812 34.101 1.61909 35.0917 2.83811 35.0917C4.05712 35.0917 5.04342 34.101 5.04342 32.8856C5.04342 31.664 4.05712 30.6797 2.83811 30.6797Z" fill="#4C96F3"></path>
  <path d="M32.1568 25.5106L36.3014 17.375H34.0613L24.3535 25.5106H32.1568Z" fill="#4C96F3"></path>
  <path d="M13.2965 32.3708C12.6569 31.6096 12.7614 30.4702 13.515 29.8325L28.379 17.375H8.89855L4.75391 25.5027H8.64684L16.2142 19.1585C16.9725 18.5192 18.114 18.6173 18.7552 19.3814C19.3868 20.1363 19.2903 21.2804 18.5319 21.915L13.7604 25.9171L6.36238 40.4271H16.667L24.2724 25.5168L15.8343 32.5937C15.076 33.2252 13.9329 33.1318 13.2965 32.3708" fill="#4C96F3"></path>
</svg>
