<?xml version="1.0" encoding="UTF-8"?>
<svg xmlns="http://www.w3.org/2000/svg" width="116" height="26" viewBox="0 0 116 26" fill="none">
  <path d="M11.8853 14.9462V24.8306H8.64431V14.9957L0 1.48993H3.78286L10.2674 11.7235L16.7207 1.48993H20.5348L11.8853 14.9462Z" fill="#1C1E24"></path>
  <path fill-rule="evenodd" clip-rule="evenodd" d="M31.0158 8.87589L30.8881 10.8142C29.9659 9.60537 28.2829 8.55804 25.7714 8.55804C21.3867 8.55804 18.3984 12.0543 18.3984 16.8533C18.3984 21.6522 21.3841 25.1485 25.7714 25.1485C28.2829 25.1485 29.9659 24.1011 30.8881 22.8923L31.0158 24.8306H33.8451V8.87589H31.0158ZM26.3419 22.3817C23.5465 22.3817 21.543 20.1593 21.543 16.8533C21.543 13.5472 23.5387 11.3222 26.3419 11.3222C28.473 11.3222 29.7757 12.4608 30.7292 14.0239V19.68C29.7757 21.2379 28.4704 22.3817 26.3419 22.3817Z" fill="#1C1E24"></path>
  <path d="M41.8512 24.8306H38.7249V0.666687H41.8512V24.8202V24.8306Z" fill="#1C1E24"></path>
  <path fill-rule="evenodd" clip-rule="evenodd" d="M57.8996 8.87589L57.7719 10.8142C56.8497 9.60537 55.164 8.55804 52.6552 8.55804C48.2705 8.55804 45.2822 12.0543 45.2822 16.8533C45.2822 21.6522 48.2679 25.1485 52.6552 25.1485C55.1667 25.1485 56.8497 24.1011 57.7719 22.8923L57.8996 24.8306H60.7263V8.87589H57.8996ZM53.2257 22.3817C50.4303 22.3817 48.4268 20.1593 48.4268 16.8533C48.4268 13.5472 50.4303 11.3222 53.2257 11.3222C55.3568 11.3222 56.6595 12.4608 57.613 14.0239V19.68C56.6595 21.2379 55.3542 22.3817 53.2257 22.3817Z" fill="#1C1E24"></path>
  <path d="M79.6641 15.3891V24.828H76.5378V15.5793C76.5378 13.1642 75.1075 11.5098 72.8513 11.5098C70.9755 11.5098 69.7041 12.6535 68.7194 14.0526V24.8254H65.593V8.87589H68.4223L68.5474 10.8142C69.4697 9.63923 71.1527 8.55804 73.6016 8.55804C77.4679 8.55804 79.6641 11.291 79.6641 15.3891Z" fill="#1C1E24"></path>
  <path d="M88.3058 8.87594H93.3262V11.5437H88.3058V19.4586C88.3058 21.3031 89.4183 22.3244 91.0387 22.3244C92.1199 22.3244 92.8624 22.1029 93.3262 21.8033L94.2172 24.2497C93.183 24.872 91.9927 25.1865 90.786 25.1563C87.3861 25.1563 85.1925 23.1841 85.1925 19.4977V11.5516H82.0662V8.87594H85.1925V3.4726H88.3188V8.87594H88.3058Z" fill="#1C1E24"></path>
  <path d="M99.9047 24.8306H96.7783V8.87592H99.9047V24.8306Z" fill="#1C1E24"></path>
  <path d="M115.286 10.3062L113.942 12.7213C112.818 11.8121 111.415 11.3181 109.969 11.3223C108.189 11.3223 107.046 11.8616 107.046 13.1668C107.046 14.472 107.968 14.7873 110.383 15.3578C114.101 16.2488 115.786 17.7755 115.786 20.188C115.786 23.2075 113.306 25.1381 109.398 25.1381C106.983 25.1381 104.758 24.3747 103.328 23.1997L104.758 20.7195C106.063 21.8205 107.725 22.4077 109.432 22.3713C111.339 22.3713 112.642 21.7356 112.642 20.3704C112.642 19.0678 111.688 18.591 109.242 18.0256C105.524 17.1659 103.935 15.8633 103.935 13.3518C103.935 10.3323 106.254 8.55286 109.974 8.55286C112.118 8.55807 114.046 9.28754 115.286 10.3062Z" fill="#1C1E24"></path>
  <path d="M100.413 3.72792C100.413 4.85166 99.5017 5.76264 98.378 5.76264C97.2542 5.76264 96.3433 4.85166 96.3433 3.72792C96.3433 2.60417 97.2542 1.69319 98.378 1.69319C98.9215 1.68021 99.4466 1.89041 99.8311 2.27485C100.215 2.65928 100.426 3.1844 100.413 3.72792Z" fill="#FF6300"></path>
</svg>
