<?xml version="1.0" encoding="UTF-8"?>
<svg xmlns="http://www.w3.org/2000/svg" width="126" height="100" viewBox="0 0 126 100" fill="none">
  <g clip-path="url(#clip0_6505_26380)">
    <path d="M57.6537 69.9728L39.375 54.4514L50.1038 53.6554L57.6537 59.2272C70.3693 47.6856 95.8005 26.5925 126 31.3683C95.8005 27.3885 62.8194 65.595 57.6537 69.9728Z" fill="#EAEAEA"></path>
    <path d="M7.11637 28.7832V51.9719H2.29688V28.7832H7.11637Z" fill="#A6A6A6"></path>
    <path d="M19.0172 28.373C22.2722 28.373 25.0337 29.2038 27.3017 30.8654L25.0022 34.9353C23.0912 33.463 21.0857 32.7269 18.9857 32.7269C17.9147 32.7269 17.0432 32.9477 16.3712 33.3894C15.7202 33.8311 15.3947 34.4515 15.3947 35.2508C15.3947 35.9659 15.6887 36.5338 16.2767 36.9545C16.8647 37.3541 17.9882 37.7327 19.6472 38.0902C22.5662 38.6792 24.6137 39.5099 25.7897 40.5826C26.9657 41.6343 27.5537 43.075 27.5537 44.9049C27.5537 47.1764 26.7662 48.9958 25.1912 50.3629C23.6162 51.709 21.4742 52.3821 18.7652 52.3821C15.1742 52.3821 12.1817 51.3515 9.78772 49.2902L12.4022 45.315C13.1792 46.1353 14.1662 46.7978 15.3632 47.3026C16.5602 47.7864 17.7467 48.0283 18.9227 48.0283C20.1407 48.0283 21.0752 47.7969 21.7262 47.3342C22.3982 46.8715 22.7342 46.2194 22.7342 45.3781C22.7342 44.663 22.3982 44.0846 21.7262 43.6429C21.0752 43.1802 19.9202 42.7806 18.2612 42.444C15.4052 41.8341 13.3997 40.9823 12.2447 39.8885C11.1107 38.7738 10.5437 37.3225 10.5437 35.5347C10.5437 33.4525 11.3312 31.7383 12.9062 30.3922C14.5022 29.0461 16.5392 28.373 19.0172 28.373Z" fill="#A6A6A6"></path>
    <path d="M41.3684 28.373C44.7704 28.373 47.6054 29.5193 49.8734 31.8119C52.1414 34.0835 53.2754 36.9545 53.2754 40.4249C53.2754 43.8743 52.1414 46.7347 49.8734 49.0063C47.6054 51.2568 44.7704 52.3821 41.3684 52.3821C37.9454 52.3821 35.0999 51.2568 32.8319 49.0063C30.5849 46.7347 29.4614 43.8743 29.4614 40.4249C29.4614 36.9545 30.5849 34.0835 32.8319 31.8119C35.0999 29.5193 37.9454 28.373 41.3684 28.373ZM46.4084 34.9353C45.1064 33.5051 43.4264 32.7899 41.3684 32.7899C39.3104 32.7899 37.6199 33.5051 36.2969 34.9353C34.9949 36.3445 34.3439 38.1744 34.3439 40.4249C34.3439 42.6123 34.9949 44.4211 36.2969 45.8514C37.6199 47.2606 39.3104 47.9652 41.3684 47.9652C43.4054 47.9652 45.0749 47.2606 46.3769 45.8514C47.6999 44.4211 48.3614 42.6123 48.3614 40.4249C48.3614 38.1954 47.7104 36.3655 46.4084 34.9353Z" fill="#A6A6A6"></path>
    <path d="M6.36033 59.8907C8.01933 59.8907 9.40008 60.4534 10.5026 61.5786L9.47883 62.746C8.63883 61.831 7.59933 61.3736 6.36033 61.3736C5.14233 61.3736 4.14483 61.7995 3.36783 62.6513C2.59083 63.5031 2.20233 64.5863 2.20233 65.9009C2.20233 67.2049 2.59083 68.2829 3.36783 69.1347C4.14483 69.9865 5.14233 70.4124 6.36033 70.4124C7.65183 70.4124 8.71758 69.9287 9.55758 68.9612L10.5656 70.16C9.50508 71.3169 8.10333 71.8953 6.36033 71.8953C4.69083 71.8953 3.31008 71.3274 2.21808 70.1916C1.12608 69.0558 0.580078 67.6256 0.580078 65.9009C0.580078 64.1657 1.12608 62.7302 2.21808 61.5944C3.31008 60.4586 4.69083 59.8907 6.36033 59.8907Z" fill="#A6A6A6"></path>
    <path d="M20.4029 60.0958V61.5786H14.8432V65.0964H19.7257V66.5319H14.8432V70.2074H20.5289V71.6902H13.2367V60.0958H20.4029Z" fill="#A6A6A6"></path>
    <path d="M31.95 71.6902H30.06L27.351 67.2891H27.3195H25.083V71.6902H23.4765V60.0958H27.3195C28.506 60.0958 29.4825 60.4166 30.249 61.0581C31.0155 61.6891 31.3988 62.5672 31.3988 63.6924C31.3988 64.5127 31.1888 65.2068 30.7688 65.7747C30.3488 66.3426 29.7765 66.7527 29.052 67.0051L31.95 71.6902ZM25.083 61.5155V65.8693H27.1778C27.9863 65.8693 28.6215 65.6853 29.0835 65.3172C29.5455 64.9386 29.7765 64.397 29.7765 63.6924C29.7765 62.9984 29.5403 62.462 29.0678 62.0834C28.6058 61.7048 27.9758 61.5155 27.1778 61.5155H25.083Z" fill="#A6A6A6"></path>
    <path d="M43.1959 60.0958V61.5313H39.1324V71.6902H37.5259V61.5313H33.4781V60.0958H43.1959Z" fill="#A6A6A6"></path>
    <path d="M47.5337 60.0958V71.6902H45.9272V60.0958H47.5337Z" fill="#A6A6A6"></path>
    <path d="M58.222 60.0958V61.5786H52.8985V65.2541H57.403V66.7054H52.8985V71.6902H51.292V60.0958H58.222Z" fill="#A6A6A6"></path>
    <path d="M62.57 60.0958V71.6902H60.9635V60.0958H62.57Z" fill="#A6A6A6"></path>
    <path d="M73.4946 60.0958V61.5786H67.9348V65.0964H72.8173V66.5319H67.9348V70.2074H73.6206V71.6902H66.3283V60.0958H73.4946Z" fill="#A6A6A6"></path>
    <path d="M80.0962 60.0958C82.0492 60.0958 83.5717 60.6059 84.6637 61.626C85.7662 62.6355 86.3174 64.0553 86.3174 65.8851C86.3174 67.715 85.7714 69.14 84.6794 70.16C83.5874 71.1801 82.0597 71.6902 80.0962 71.6902H76.5997V60.0958H80.0962ZM80.0489 61.5944H78.2062V70.2074H80.0489C81.5399 70.2074 82.6844 69.834 83.4824 69.0874C84.2909 68.3302 84.6952 67.2628 84.6952 65.8851C84.6952 64.5285 84.2909 63.4769 83.4824 62.7302C82.6739 61.973 81.5294 61.5944 80.0489 61.5944Z" fill="#A6A6A6"></path>
    <path d="M59.4551 31.0925C60.2195 31.0925 60.8369 31.3244 61.3073 31.7882C61.7777 32.2446 62.0129 32.8372 62.0129 33.566C62.0129 34.015 61.9321 34.4199 61.7704 34.7806C61.616 35.1414 61.3698 35.5389 61.0317 35.9732L59.2897 38.1485H62.1011V39.3521H57.0186V39.2859L59.9623 35.2996C60.2269 34.9463 60.4106 34.6481 60.5135 34.4052C60.6164 34.1549 60.6679 33.8678 60.6679 33.5439C60.6679 33.1611 60.5539 32.8593 60.3261 32.6384C60.0982 32.4102 59.8079 32.2961 59.4551 32.2961C58.7422 32.2961 58.3085 32.7268 58.1542 33.5881L56.9414 33.301C57.2281 31.8287 58.066 31.0925 59.4551 31.0925Z" fill="#A6A6A6"></path>
    <path d="M68.3245 31.2361V31.3023L64.3335 39.3521H62.8782L66.3511 32.4618H62.7349V31.2361H68.3245Z" fill="#A6A6A6"></path>
    <path d="M76.0302 32.2188C76.5374 31.468 77.243 31.0925 78.1471 31.0925C79.0511 31.0925 79.7567 31.468 80.2639 32.2188C80.771 32.9697 81.0246 33.993 81.0246 35.2886C81.0246 36.5842 80.771 37.6111 80.2639 38.3694C79.7567 39.1202 79.0511 39.4957 78.1471 39.4957C77.243 39.4957 76.5374 39.1202 76.0302 38.3694C75.5231 37.6111 75.2695 36.5842 75.2695 35.2886C75.2695 33.993 75.5231 32.9697 76.0302 32.2188ZM79.2826 33.0912C79.0327 32.5538 78.6542 32.2851 78.1471 32.2851C77.6399 32.2851 77.2577 32.5538 77.0005 33.0912C76.7506 33.6212 76.6256 34.3537 76.6256 35.2886C76.6256 36.2309 76.7506 36.9707 77.0005 37.5081C77.2577 38.0381 77.6399 38.3031 78.1471 38.3031C78.6542 38.3031 79.0327 38.0381 79.2826 37.5081C79.5399 36.9707 79.6685 36.2309 79.6685 35.2886C79.6685 34.3537 79.5399 33.6212 79.2826 33.0912Z" fill="#A6A6A6"></path>
    <path d="M84.8039 31.0925V39.3521H83.4699V33.4335L82.1469 34.1844L81.5736 32.9808L84.7598 31.0925H84.8039Z" fill="#A6A6A6"></path>
    <path d="M59.4551 43.7122C60.2195 43.7122 60.8369 43.9441 61.3073 44.4079C61.7777 44.8643 62.0129 45.4569 62.0129 46.1857C62.0129 46.6348 61.9321 47.0396 61.7704 47.4004C61.616 47.7611 61.3698 48.1586 61.0317 48.5929L59.2897 50.7682H62.1011V51.9719H57.0186V51.9056L59.9623 47.9193C60.2269 47.566 60.4106 47.2679 60.5135 47.0249C60.6164 46.7746 60.6679 46.4875 60.6679 46.1636C60.6679 45.7808 60.5539 45.479 60.3261 45.2582C60.0982 45.03 59.8079 44.9159 59.4551 44.9159C58.7422 44.9159 58.3085 45.3465 58.1542 46.2078L56.9414 45.9207C57.2281 44.4484 58.066 43.7122 59.4551 43.7122Z" fill="#A6A6A6"></path>
    <path d="M63.6164 44.8386C64.1235 44.0877 64.8291 43.7122 65.7332 43.7122C66.6372 43.7122 67.3428 44.0877 67.85 44.8386C68.3571 45.5894 68.6107 46.6127 68.6107 47.9083C68.6107 49.2039 68.3571 50.2309 67.85 50.9891C67.3428 51.74 66.6372 52.1154 65.7332 52.1154C64.8291 52.1154 64.1235 51.74 63.6164 50.9891C63.1092 50.2309 62.8556 49.2039 62.8556 47.9083C62.8556 46.6127 63.1092 45.5894 63.6164 44.8386ZM66.8687 45.7109C66.6188 45.1735 66.2403 44.9048 65.7332 44.9048C65.226 44.9048 64.8438 45.1735 64.5866 45.7109C64.3367 46.2409 64.2117 46.9734 64.2117 47.9083C64.2117 48.8506 64.3367 49.5904 64.5866 50.1278C64.8438 50.6578 65.226 50.9228 65.7332 50.9228C66.2403 50.9228 66.6188 50.6578 66.8687 50.1278C67.126 49.5904 67.2546 48.8506 67.2546 47.9083C67.2546 46.9734 67.126 46.2409 66.8687 45.7109Z" fill="#A6A6A6"></path>
    <path d="M72.39 43.7122V51.9719H71.056V46.0532L69.733 46.8041L69.1597 45.6005L72.3459 43.7122H72.39Z" fill="#A6A6A6"></path>
    <path d="M75 31.2361V31.3023L71.0089 39.3521H69.5536L73.0265 32.4618H69.4103V31.2361H75Z" fill="#A6A6A6"></path>
    <path d="M76.7385 43.7122C77.4967 43.7122 78.1372 43.9662 78.6598 44.4742C79.1825 44.9821 79.4438 45.6262 79.4438 46.4066C79.4438 46.9513 79.2745 47.4887 78.9359 48.0187L76.3851 51.9719H74.8834L76.7164 49.1119C75.9582 49.1046 75.314 48.8432 74.784 48.3279C74.2613 47.8126 74 47.1722 74 46.4066C74 45.6262 74.265 44.9821 74.795 44.4742C75.3251 43.9662 75.9729 43.7122 76.7385 43.7122ZM76.7385 47.9193C77.1213 47.9193 77.4415 47.7795 77.6992 47.4997C77.9568 47.2126 78.0856 46.8482 78.0856 46.4066C78.0856 45.9575 77.9568 45.5968 77.6992 45.3244C77.4489 45.0447 77.1286 44.9048 76.7385 44.9048C76.3483 44.9048 76.0207 45.0447 75.7557 45.3244C75.4907 45.6042 75.3582 45.9649 75.3582 46.4066C75.3582 46.8482 75.4907 47.2126 75.7557 47.4997C76.0207 47.7795 76.3483 47.9193 76.7385 47.9193Z" fill="#A6A6A6"></path>
  </g>
  <defs>
    <clipPath id="clip0_6505_26380">
      <rect y="22" width="126" height="56" rx="4" fill="white"></rect>
    </clipPath>
  </defs>
</svg>
