<?xml version="1.0" encoding="UTF-8"?>
<svg xmlns="http://www.w3.org/2000/svg" width="280" height="60" viewBox="0 0 280 60" fill="none">
  <path fill-rule="evenodd" clip-rule="evenodd" d="M42.1519 18C41.2448 18 40.5098 18.7375 40.5098 19.641C40.5098 20.5504 41.2448 21.2843 42.1519 21.2843C43.059 21.2843 43.7929 20.5504 43.7929 19.641C43.7929 18.7375 43.059 18 42.1519 18ZM173.931 27.6739C173.931 24.2954 177.399 22.7161 180.823 22.7161C183.968 22.7161 186.925 24.0363 187.939 27.3387H184.352C183.904 26.3959 182.922 25.5885 180.823 25.5885C178.614 25.5885 177.356 26.4788 177.356 27.6637C177.356 28.8418 179.164 29.1582 181.307 29.5334C184.429 30.0799 188.264 30.7513 188.264 34.3936C188.264 38.3053 184.614 39.7509 181.021 39.7509C176.713 39.7509 173.76 37.6131 173.336 34.1618H176.783C177.05 34.9861 178.042 36.7397 181.021 36.7397C182.504 36.7397 184.704 36.3318 184.704 34.463C184.704 33.1114 182.817 32.7939 180.622 32.4247C177.573 31.9116 173.931 31.2988 173.931 27.6739ZM72.4427 36.7808C75.42 36.7808 77.3649 34.4415 77.3649 31.2255C77.3649 28.0078 75.42 25.6702 72.4427 25.6702C69.4653 25.6702 67.5205 28.0078 67.5205 31.2255C67.5205 34.4415 69.4653 36.7808 72.4427 36.7808ZM72.4427 22.7166C77.4867 22.7166 81.1631 26.0325 81.1631 31.2255C81.1631 36.4186 77.4867 39.7344 72.4427 39.7344C67.3986 39.7344 63.7222 36.4186 63.7222 31.2255C63.7222 26.0325 67.3986 22.7166 72.4427 22.7166ZM48.042 26.5335H53.2942V39.1454H57.1332V26.5335H62.3888V23.3057H48.042V26.5335ZM117.439 26.5335H122.692V39.1454H126.531V26.5335H131.785V23.3057H117.439V26.5335ZM112.279 31.2255C112.279 34.4415 110.334 36.7808 107.356 36.7808C104.381 36.7808 102.434 34.4415 102.434 31.2255C102.434 28.0078 104.381 25.6702 107.356 25.6702C110.334 25.6702 112.279 28.0078 112.279 31.2255ZM116.077 31.2255C116.077 26.0325 112.402 22.7166 107.356 22.7166C102.312 22.7166 98.6377 26.0325 98.6377 31.2255C98.6377 36.4186 102.312 39.7344 107.356 39.7344C112.402 39.7344 116.077 36.4186 116.077 31.2255ZM98.6986 23.3054H94.511L89.863 29.9185L85.215 23.3054H81.0884L88.0807 33.2057V39.1451H91.5675V33.292L98.6986 23.3054ZM139.629 26.5464L142.09 32.975H137.056L139.629 26.5464ZM148.552 39.1447L142.019 23.3049H137.159L130.675 39.1447H134.575L135.89 35.9083H143.275L144.56 39.1447H148.552ZM199.069 39.7506C193.759 39.7506 191.263 36.7952 191.263 33.0596V23.3269H194.895V32.2218C194.895 34.5407 195.865 36.6683 199.069 36.6683C202.25 36.6683 203.441 34.5407 203.441 32.2218V23.3269H207.072V33.0596C207.072 36.7952 204.357 39.7506 199.069 39.7506ZM157.046 26.5335H162.299V39.1454H166.138V26.5335H171.393V23.3057H157.046V26.5335ZM255.58 36.7808C258.554 36.7808 260.5 34.4415 260.5 31.2255C260.5 28.0078 258.554 25.6702 255.58 25.6702C252.601 25.6702 250.654 28.0078 250.654 31.2255C250.654 34.4415 252.601 36.7808 255.58 36.7808ZM255.58 22.7166C260.622 22.7166 264.297 26.0325 264.297 31.2255C264.297 36.4186 260.622 39.7344 255.58 39.7344C250.534 39.7344 246.859 36.4186 246.859 31.2255C246.859 26.0325 250.534 22.7166 255.58 22.7166ZM231.86 23.3054H228.16V39.1451H231.86V32.7215H240.441V39.1451H244.138V23.3054H240.441V29.4938H231.86V23.3054ZM217.54 22.7161C214.117 22.7161 210.649 24.2954 210.649 27.6739C210.649 31.2988 214.291 31.9116 217.34 32.4247C219.534 32.7939 221.421 33.1114 221.421 34.463C221.421 36.3318 219.22 36.7397 217.738 36.7397C214.76 36.7397 213.768 34.9861 213.503 34.1618H210.055C210.478 37.6131 213.432 39.7509 217.738 39.7509C221.336 39.7509 224.984 38.3053 224.984 34.3936C224.984 30.7513 221.149 30.0799 218.027 29.5334C215.884 29.1582 214.076 28.8418 214.076 27.6637C214.076 26.4788 215.332 25.5885 217.54 25.5885C219.638 25.5885 220.624 26.3959 221.07 27.3387H224.655C223.642 24.0363 220.686 22.7161 217.54 22.7161ZM15 35.3846C15 34.4751 15.7339 33.7424 16.641 33.7424C17.548 33.7424 18.282 34.4751 18.282 35.3846C18.282 36.2893 17.548 37.0267 16.641 37.0267C15.7339 37.0267 15 36.2893 15 35.3846ZM38.4529 29.8953L41.537 23.8391H39.8701L32.6465 29.8953H38.4529ZM24.6403 33.1135C24.0795 33.5882 24.0018 34.4364 24.4777 35.003C24.9513 35.5695 25.8018 35.639 26.3661 35.169L32.6449 29.9009L26.9857 41.0001H19.318L24.8229 30.1989L28.3734 27.2197C28.9377 26.7473 29.0095 25.8956 28.5395 25.3337C28.0624 24.7648 27.213 24.6918 26.6488 25.1677L21.0178 29.8904H18.1211L21.2051 23.8401H35.7007L24.6403 33.1135Z" fill="#77787C"></path>
</svg>
